# xmcd
#
# Track frame offsets:
#  150
#  20697
#  43234
#  63737
#  86701
#  105687
#  126418
#  145711
#  169072
#  187508
#  209435
#  231225
#  250637
#  271260
#  295767
#
# Disc length: 4284 seconds
#
# Revision: 0
# Processed by: cddbd v1.4PL0 Copyright (c) Steve Scherf et al.
# Submitted via: AltoMP3_Maker 3.0
#
DISCID=da10ba0f
DTITLE=许如芸 - 花开
DYEAR=1900
DGENRE=
TTITLE0=没有你的圣诞节
TTITLE1=爱只剩一秒
TTITLE2=深渊
TTITLE3=宁愿爱你
TTITLE4=舍不得
TTITLE5=完美
TTITLE6=TRY
TTITLE7=凭感觉
TTITLE8=讨厌
TTITLE9=红色爱情海
TTITLE10=爱不爱你都一样
TTITLE11=美梦成真
TTITLE12=独角戏
TTITLE13=如果云知道
TTITLE14=我依然爱你
EXTD=
EXTT0=
EXTT1=
EXTT2=
EXTT3=
EXTT4=
EXTT5=
EXTT6=
EXTT7=
EXTT8=
EXTT9=
EXTT10=
EXTT11=
EXTT12=
EXTT13=
EXTT14=
PLAYORDER=
